<?xml version="1.0" encoding="UTF-8" standalone="no"?>
<!-- Created with Inkscape (http://www.inkscape.org/) -->

<svg
   width="800"
   height="600"
   viewBox="0 0 211.66667 158.75"
   version="1.1"
   id="svg5"
   inkscape:version="1.1.1 (3bf5ae0d25, 2021-09-20)"
   sodipodi:docname="modelisation.svg"
   xmlns:inkscape="http://www.inkscape.org/namespaces/inkscape"
   xmlns:sodipodi="http://sodipodi.sourceforge.net/DTD/sodipodi-0.dtd"
   xmlns="http://www.w3.org/2000/svg"
   xmlns:svg="http://www.w3.org/2000/svg">
  <sodipodi:namedview
     id="namedview7"
     pagecolor="#ffffff"
     bordercolor="#666666"
     borderopacity="1.0"
     inkscape:pageshadow="2"
     inkscape:pageopacity="0.0"
     inkscape:pagecheckerboard="0"
     inkscape:document-units="mm"
     showgrid="false"
     inkscape:snap-intersection-paths="true"
     inkscape:snap-global="true"
     inkscape:snap-smooth-nodes="true"
     inkscape:snap-text-baseline="false"
     width="800mm"
     units="px"
     height="2267px"
     inkscape:zoom="0.54698373"
     inkscape:cx="348.27362"
     inkscape:cy="561.25984"
     inkscape:window-width="1600"
     inkscape:window-height="822"
     inkscape:window-x="-8"
     inkscape:window-y="-8"
     inkscape:window-maximized="1"
     inkscape:current-layer="layer1" />
  <defs
     id="defs2">
    <marker
       style="overflow:visible"
       id="Tail"
       refX="0"
       refY="0"
       orient="auto"
       inkscape:stockid="Tail"
       inkscape:isstock="true">
      <g
         transform="scale(-1.2)"
         id="g7759">
        <path
           style="fill:none;fill-rule:evenodd;stroke:context-stroke;stroke-width:0.8;stroke-linecap:round"
           d="M -3.8048674,-3.9585227 0.54352094,0"
           id="path7747" />
        <path
           style="fill:none;fill-rule:evenodd;stroke:context-stroke;stroke-width:0.8;stroke-linecap:round"
           d="M -1.2866832,-3.9585227 3.0617053,0"
           id="path7749" />
        <path
           style="fill:none;fill-rule:evenodd;stroke:context-stroke;stroke-width:0.8;stroke-linecap:round"
           d="M 1.3053582,-3.9585227 5.6537466,0"
           id="path7751" />
        <path
           style="fill:none;fill-rule:evenodd;stroke:context-stroke;stroke-width:0.8;stroke-linecap:round"
           d="M -3.8048674,4.1775838 0.54352094,0.21974226"
           id="path7753" />
        <path
           style="fill:none;fill-rule:evenodd;stroke:context-stroke;stroke-width:0.8;stroke-linecap:round"
           d="M -1.2866832,4.1775838 3.0617053,0.21974226"
           id="path7755" />
        <path
           style="fill:none;fill-rule:evenodd;stroke:context-stroke;stroke-width:0.8;stroke-linecap:round"
           d="M 1.3053582,4.1775838 5.6537466,0.21974226"
           id="path7757" />
      </g>
    </marker>
  </defs>
  <g
     inkscape:label="Calque 1"
     inkscape:groupmode="layer"
     id="layer1">
    <path
       sodipodi:type="star"
       style="fill:none"
       id="path133"
       inkscape:flatsided="true"
       sodipodi:sides="6"
       sodipodi:cx="184.649"
       sodipodi:cy="135.28738"
       sodipodi:r1="312.88538"
       sodipodi:r2="270.96667"
       sodipodi:arg1="0.76887074"
       sodipodi:arg2="1.2924695"
       inkscape:rounded="0"
       inkscape:randomized="0"
       d="M 409.51857,352.84412 108.67413,438.80851 -116.19545,221.25178 -40.220569,-82.269354 260.62388,-168.23375 485.49345,49.322992 Z"
       transform="scale(0.26458333)" />
    <path
       sodipodi:type="star"
       style="fill:#000000;stroke-width:1.32492"
       id="path473"
       inkscape:flatsided="true"
       sodipodi:sides="6"
       sodipodi:cx="73.128319"
       sodipodi:cy="171.85155"
       sodipodi:r1="160.89268"
       sodipodi:r2="139.33714"
       sodipodi:arg1="1.5594332"
       sodipodi:arg2="2.083032"
       inkscape:rounded="0"
       inkscape:randomized="0"
       d="M 74.956523,332.73385 -65.285736,253.87597 -67.11394,92.99367 71.300114,10.969249 211.54237,89.827127 213.37058,250.70942 Z"
       transform="matrix(0.20249904,0,0,0.19693418,38.883768,40.406555)" />
    <text
       xml:space="preserve"
       style="font-style:normal;font-weight:normal;font-size:10.5833px;line-height:1.25;font-family:sans-serif;fill:#000000;fill-opacity:1;stroke:none;stroke-width:0.264583"
       x="53.208469"
       y="73.524429"
       id="text2097"><tspan
         sodipodi:role="line"
         id="tspan2095"
         style="stroke-width:0.264583"
         x="53.208469"
         y="73.524429">FF</tspan></text>
    <rect
       style="fill:#ffff00;stroke-width:0.264583"
       id="rect5883"
       width="62.399029"
       height="60.464165"
       x="27.571663"
       y="129.63518" />
    <ellipse
       style="fill:#ff0000;stroke-width:0.264583"
       id="path5951"
       cx="59.013023"
       cy="241.1311"
       rx="38.697067"
       ry="33.134365" />
    <path
       sodipodi:type="star"
       style="fill:#000000;stroke-width:1.32492"
       id="path6154"
       inkscape:flatsided="true"
       sodipodi:sides="6"
       sodipodi:cx="73.128319"
       sodipodi:cy="171.85155"
       sodipodi:r1="160.89268"
       sodipodi:r2="139.33714"
       sodipodi:arg1="1.5594332"
       sodipodi:arg2="2.083032"
       inkscape:rounded="0"
       inkscape:randomized="0"
       d="M 74.956523,332.73385 -65.285736,253.87597 -67.11394,92.99367 71.300114,10.969249 211.54237,89.827127 213.37058,250.70942 Z"
       transform="matrix(0.20249904,0,0,0.19693418,38.883768,40.406555)" />
    <path
       sodipodi:type="star"
       style="fill:#000000;stroke-width:1.32492"
       id="path6156"
       inkscape:flatsided="true"
       sodipodi:sides="6"
       sodipodi:cx="73.128319"
       sodipodi:cy="171.85155"
       sodipodi:r1="160.89268"
       sodipodi:r2="139.33714"
       sodipodi:arg1="1.5594332"
       sodipodi:arg2="2.083032"
       inkscape:rounded="0"
       inkscape:randomized="0"
       d="M 74.956523,332.73385 -65.285736,253.87597 -67.11394,92.99367 71.300114,10.969249 211.54237,89.827127 213.37058,250.70942 Z"
       transform="matrix(0.20249904,0,0,0.19693418,38.883768,40.406555)" />
    <path
       sodipodi:type="star"
       style="fill:#000000;stroke-width:1.32492"
       id="path6158"
       inkscape:flatsided="true"
       sodipodi:sides="6"
       sodipodi:cx="73.128319"
       sodipodi:cy="171.85155"
       sodipodi:r1="160.89268"
       sodipodi:r2="139.33714"
       sodipodi:arg1="1.5594332"
       sodipodi:arg2="2.083032"
       inkscape:rounded="0"
       inkscape:randomized="0"
       d="M 74.956523,332.73385 -65.285736,253.87597 -67.11394,92.99367 71.300114,10.969249 211.54237,89.827127 213.37058,250.70942 Z"
       transform="matrix(0.20249904,0,0,0.19693418,144.81699,40.890269)" />
    <path
       style="fill:#179955;fill-opacity:1;stroke:#00de00;stroke-width:0.265;stroke-linecap:butt;stroke-linejoin:miter;stroke-miterlimit:4.6;stroke-dasharray:0.265, 1.59;stroke-dashoffset:2.65;stroke-opacity:1;marker-start:url(#Tail)"
       d="m 39.180718,252.49837 c 25.17451,-83.1987 40.2792,-180.42508 40.2792,-180.42508"
       id="path6698"
       inkscape:transform-center-x="360.51579"
       inkscape:transform-center-y="-3.8644462" />
    <text
       xml:space="preserve"
       style="font-style:normal;font-weight:normal;font-size:8.91537px;line-height:1.25;font-family:sans-serif;fill:#00ee00;fill-opacity:1;stroke:none;stroke-width:0.264583"
       x="122.59389"
       y="81.924759"
       id="text11631"
       transform="scale(1.085775,0.92100112)"
       onclick="window.open('https://www.youtube.com/watch?v=Y6a27QAFQmw','blank')"
       cursor:pointer="cursor:pointer"><tspan
         sodipodi:role="line"
         id="tspan11629"
         style="fill:#00ee00;fill-opacity:1;stroke-width:0.264583"
         x="122.59389"
         y="81.924759">Numérique</tspan></text>
    <path
       style="fill:#00ee00;fill-opacity:1;stroke:#00de00;stroke-width:0.264999;stroke-miterlimit:4.6;stroke-dasharray:0.264999, 1.59;stroke-dashoffset:2.64999;stroke-opacity:1"
       id="path13705"
       d="m 167.12105,107.54441 c -4.98324,4.91794 -9.85897,10.36679 -12.02062,17.1884 -1.594,5.03025 -1.08982,6.18831 -0.82995,11.28093 0.85002,4.73304 2.84916,9.01651 5.28052,13.11731 2.74855,4.63577 1.33429,1.72748 3.86242,6.20428 0.51901,0.91906 0.97644,1.87155 1.46466,2.80733 1.06596,2.52729 2.83844,5.86179 1.23418,8.59281 -0.79213,1.34848 -2.06806,2.11989 -3.26748,3.04366 -3.0364,2.15096 -6.47629,4.25796 -7.92578,7.89203 -0.95707,2.39951 -0.67759,3.38906 -0.62973,5.92684 1.04651,6.26851 4.52302,11.64891 7.44131,17.16764 0.56354,1.06572 1.08785,2.15172 1.63177,3.22758 1.66396,3.89291 3.24219,7.83078 1.2026,11.94754 -1.21486,2.45209 -2.58729,3.39939 -4.56044,5.2843 -4.70473,3.82746 -9.94844,7.25931 -12.85585,12.78677 -1.75487,3.33628 -1.83688,5.01396 -2.56071,8.60321 -0.63589,5.40521 1.11931,10.43041 2.92863,15.42168 0.41781,1.15261 0.90847,2.28005 1.27418,3.45023 0.32535,1.04104 0.53065,2.11588 0.79598,3.17382 -0.021,0.9938 0.18218,2.01809 -0.0629,2.98141 -0.53231,2.09222 -2.24458,3.91348 -3.70297,5.35657 -2.26461,2.24081 -4.91045,3.98065 -7.53867,5.74947 0,0 3.48055,-1.3653 3.48055,-1.3653 v 0 c 2.59964,-1.78194 5.22853,-3.54126 7.44183,-5.81231 1.53669,-1.57679 3.12913,-3.3681 3.63197,-5.61229 0.2227,-0.99394 -0.003,-2.03715 -0.004,-3.05573 -0.28212,-1.06332 -0.50809,-2.14316 -0.84637,-3.18997 -0.37606,-1.16369 -0.87337,-2.28473 -1.29391,-3.43309 -1.80308,-4.92364 -3.47487,-9.90061 -2.86885,-15.23187 0.73366,-3.57887 0.79095,-5.14292 2.58455,-8.45731 2.97507,-5.49762 8.29213,-8.87039 12.96179,-12.75282 2.02513,-1.99008 3.35811,-2.90627 4.55717,-5.4862 1.95993,-4.21706 0.32511,-8.22881 -1.38538,-12.17104 -1.73255,-3.38005 -3.63736,-6.66583 -5.33626,-10.06276 -1.2127,-2.42478 -2.14548,-4.3066 -2.89677,-6.90821 -0.31224,-1.08127 -0.47437,-2.20035 -0.71156,-3.30052 -0.001,-2.48982 -0.26221,-3.42237 0.73537,-5.75175 1.52927,-3.57089 5.01924,-5.60135 8.00928,-7.77934 1.29865,-1.06007 2.44946,-1.74797 3.23327,-3.27832 1.46693,-2.86408 -0.36357,-6.20505 -1.484,-8.79517 -0.50073,-0.93744 -0.97138,-1.89158 -1.5022,-2.81232 -2.57163,-4.4607 -1.12341,-1.5669 -3.91333,-6.15906 -2.44758,-4.0287 -4.47584,-8.22865 -5.30977,-12.91551 -0.24772,-5.00458 -0.74888,-6.17259 0.85392,-11.11124 2.24462,-6.91625 7.31163,-12.38223 12.49091,-17.24824 0,0 -3.58886,1.48656 -3.58886,1.48656 z" />
    <circle
       id="path13707"
       style="fill:#00ee00;stroke:#00de00;stroke-width:0.264583"
       cx="-57.56189"
       cy="78.361557"
       r="0.064531609" />
    <circle
       id="path13709"
       style="fill:#00ee00;stroke:#00de00;stroke-width:0.264583"
       cx="-57.56189"
       cy="78.361557"
       r="0.064531609" />
    <circle
       id="path13711"
       style="fill:#00ee00;stroke:#00de00;stroke-width:0.264583"
       cx="238.47067"
       cy="113.18893"
       r="1.613303e-05" />
    <circle
       id="path13713"
       style="fill:#00ee00;stroke:#00de00;stroke-width:0.264583"
       cx="238.47067"
       cy="113.18893"
       r="1.613303e-05" />
    <circle
       id="path13715"
       style="fill:#00ee00;stroke:#00de00;stroke-width:0.264583"
       cx="155.75571"
       cy="88.035835"
       r="1.613303e-05" />
    <circle
       id="path13717"
       style="fill:#00ee00;stroke:#00de00;stroke-width:0.264583"
       cx="155.75571"
       cy="88.035835"
       r="1.613303e-05" />
    <circle
       id="path13719"
       style="fill:#00ee00;stroke:#00de00;stroke-width:0.264583"
       cx="162.04396"
       cy="64.817589"
       r="1.613303e-05" />
    <circle
       id="path13721"
       style="fill:#00ee00;stroke:#00de00;stroke-width:0.264583"
       cx="162.04396"
       cy="64.817589"
       r="1.613303e-05" />
    <circle
       id="path13723"
       style="fill:#00ee00;stroke:#00de00;stroke-width:0.264583"
       cx="165.91368"
       cy="52.724758"
       r="1.613303e-05" />
    <circle
       id="path13725"
       style="fill:#00ee00;stroke:#00de00;stroke-width:0.264583"
       cx="165.91368"
       cy="52.724758"
       r="1.613303e-05" />
  </g>
</svg>
